<svg xmlns="http://www.w3.org/2000/svg" width="198" height="144" viewBox="0 0 198 144" fill="none">
  <g style="mix-blend-mode:soft-light">
    <path d="M103.465 98.3418H138.63C148.635 98.3418 156.734 90.201 156.734 80.1687V41.0188H121.569C111.563 41.0188 103.465 49.1595 103.465 59.1919V98.3418Z" fill="none" stroke="#CCE9F5" stroke-opacity="0.2" stroke-width="2"/>
    <path d="M165.55 73.03H187.58C193.334 73.03 198 68.346 198 62.5698V41.6943H175.97C170.216 41.6943 165.55 46.3784 165.55 52.1546V73.03Z" fill="none" stroke="#CCE9F5" stroke-opacity="0.2" stroke-width="2"/>
    <path d="M118.058 33.6212H140.088C145.842 33.6212 150.508 28.9371 150.508 23.1609V2.28552H128.478C122.724 2.28552 118.058 6.96954 118.058 12.7458V33.6212Z" fill="none" stroke="#CCE9F5" stroke-opacity="0.2" stroke-width="2"/>
    <path d="M162.892 36.3123H173.727C176.363 36.3123 178.494 34.173 178.494 31.527V20.6501H167.659C165.023 20.6501 162.892 22.7895 162.892 25.4355V36.3123Z" fill="none" stroke="#CCE9F5" stroke-opacity="0.2" stroke-width="2"/>
    <path d="M162.24 94.5134H170.44C173.076 94.5134 175.207 92.3741 175.207 89.7281V81.4973H167.007C164.371 81.4973 162.24 83.6366 162.24 86.2826V94.5134Z" fill="none" stroke="#CCE9F5" stroke-opacity="0.2" stroke-width="2"/>
    <path d="M43.9814 144H63.5661C69.0736 144 73.5267 139.519 73.5267 134.001V112.529H53.942C48.4345 112.529 43.9814 117.011 43.9814 122.528V144Z" fill="none" stroke="#CCE9F5" stroke-opacity="0.2" stroke-width="2"/>
    <path d="M20.5488 120.58H34.1325C38.0471 120.58 41.2215 117.393 41.2215 113.464V99.8283H27.6379C23.7232 99.8283 20.5488 103.015 20.5488 106.944V120.58Z" fill="none" stroke="#CCE9F5" stroke-opacity="0.2" stroke-width="2"/>
    <path d="M63.0391 45.3314H94.5809C102.096 45.3314 108.198 39.2174 108.198 31.6622V0H76.6563C69.1298 0 63.0391 6.114 63.0391 13.6692V45.3314Z" fill="none" stroke="#CCE9F5" stroke-opacity="0.2" stroke-width="2"/>
    <path d="M95.0405 105.841H61.603C51.5976 105.841 43.499 97.7002 43.499 87.6678V54.1028H76.9365C86.9419 54.1028 95.0405 62.2435 95.0405 72.2759V105.841Z" fill="none" stroke="#CCE9F5" stroke-opacity="0.2" stroke-width="2"/>
    <path d="M53.46 47.9434H34.8737C29.3662 47.9434 24.9131 43.462 24.9131 37.9448V19.2875H43.4994C49.0069 19.2875 53.46 23.7689 53.46 29.2861V47.9434Z" fill="none" stroke="#CCE9F5" stroke-opacity="0.2" stroke-width="2"/>
    <path d="M36.9371 92.4303H9.96058C4.46431 92.4303 0 87.949 0 82.4205V55.3522H26.9653C32.4728 55.3522 36.9259 59.8336 36.9259 65.3508V92.4303H36.9371Z" fill="none" stroke="#CCE9F5" stroke-opacity="0.2" stroke-width="2"/>
  </g>
</svg>