<svg width="210" height="102" viewBox="0 0 210 102" fill="none" xmlns="http://www.w3.org/2000/svg">
<path d="M75.6801 66.3507C74.9601 65.6907 74.2701 65.3607 73.6101 65.3607C73.3001 65.3607 73.0451 65.4507 72.8451 65.6307C72.6551 65.8007 72.5601 66.0307 72.5601 66.3207C72.5601 66.6807 72.6751 66.9607 72.9051 67.1607C73.1451 67.3607 73.6151 67.5857 74.3151 67.8357C75.0151 68.0657 75.5051 68.2957 75.7851 68.5257C76.2351 68.8957 76.4601 69.4107 76.4601 70.0707C76.4601 71.1007 75.9851 71.9157 75.0351 72.5157C74.1851 73.0457 73.0951 73.3107 71.7651 73.3107C70.1051 73.3107 68.8551 72.8357 68.0151 71.8857C67.3951 71.1757 67.0851 70.3057 67.0851 69.2757C67.0851 68.4857 67.2701 67.7957 67.6401 67.2057L69.4401 66.8307C69.0401 67.5107 68.8401 68.2257 68.8401 68.9757C68.8401 69.7657 69.0901 70.3807 69.5901 70.8207C70.0901 71.2707 70.8151 71.4957 71.7651 71.4957C72.7251 71.4957 73.4551 71.3457 73.9551 71.0457C74.3751 70.7857 74.5851 70.4557 74.5851 70.0557C74.5851 69.8457 74.4951 69.6757 74.3151 69.5457C74.1451 69.4057 73.7901 69.2407 73.2501 69.0507C72.3801 68.7407 71.7801 68.4207 71.4501 68.0907C71.0001 67.6407 70.7751 67.0457 70.7751 66.3057C70.7751 65.4257 71.0801 64.7407 71.6901 64.2507C72.1501 63.8707 72.6851 63.6807 73.2951 63.6807C74.3151 63.6807 75.1101 64.0357 75.6801 64.7457V66.3507ZM70.7601 76.6257C70.4601 76.6257 70.2201 76.5307 70.0401 76.3407C69.8601 76.1607 69.7701 75.9207 69.7701 75.6207C69.7701 75.3307 69.8601 75.0957 70.0401 74.9157C70.2201 74.7357 70.4601 74.6457 70.7601 74.6457C71.0601 74.6457 71.2951 74.7307 71.4651 74.9007C71.6451 75.0807 71.7351 75.3207 71.7351 75.6207C71.7351 76.2907 71.4101 76.6257 70.7601 76.6257ZM73.0701 76.6257C72.7701 76.6257 72.5301 76.5357 72.3501 76.3557C72.1701 76.1757 72.0801 75.9307 72.0801 75.6207C72.0801 74.9707 72.4101 74.6457 73.0701 74.6457C73.3701 74.6457 73.6051 74.7307 73.7751 74.9007C73.9551 75.0807 74.0451 75.3207 74.0451 75.6207C74.0451 76.2907 73.7201 76.6257 73.0701 76.6257ZM77.5083 70.4607L78.4533 68.6457H80.8233C81.3333 68.6457 81.5883 68.3507 81.5883 67.7607C81.5883 66.6507 81.0583 65.8007 79.9983 65.2107L80.9283 63.6207C82.6283 64.6207 83.4783 66.0107 83.4783 67.7907C83.4783 69.5707 82.7083 70.4607 81.1683 70.4607H77.5083ZM92.9818 68.6457V70.4607H91.1368C91.0668 71.3607 90.6668 72.0807 89.9368 72.6207C89.3368 73.0607 88.6368 73.2807 87.8368 73.2807C87.2068 73.2807 86.5918 73.1107 85.9918 72.7707V71.1357C86.5318 71.4457 87.0718 71.6007 87.6118 71.6007C88.0318 71.6007 88.4018 71.4857 88.7218 71.2557C89.0518 71.0257 89.2318 70.7507 89.2618 70.4307C89.1818 70.4207 89.0568 70.4107 88.8868 70.4007C88.7168 70.3807 88.5868 70.3657 88.4968 70.3557C87.4668 70.2457 86.6718 69.8407 86.1118 69.1407C85.6418 68.5507 85.4068 67.8357 85.4068 66.9957C85.4068 65.8957 85.7068 65.0257 86.3068 64.3857C86.8368 63.8257 87.5368 63.5457 88.4068 63.5457C89.2968 63.5457 89.9918 63.8307 90.4918 64.4007C90.9218 64.8907 91.1368 65.5307 91.1368 66.3207V68.6457H92.9818ZM89.2618 66.2907C89.2618 65.6307 88.9768 65.3007 88.4068 65.3007C87.6468 65.3007 87.2668 65.8457 87.2668 66.9357C87.2668 67.9057 87.7068 68.4457 88.5868 68.5557C88.7268 68.5857 88.9518 68.6107 89.2618 68.6307V66.2907ZM99.4491 68.6457H103.574L103.604 70.4607H99.2691C98.7591 70.4607 98.2791 70.3357 97.8291 70.0857C97.3591 70.3357 96.8791 70.4607 96.3891 70.4607H92.0841V68.6457H96.1641C95.7141 68.3357 95.3391 68.0407 95.0391 67.7607C94.8691 67.6107 94.6091 67.3307 94.2591 66.9207C94.1491 66.7907 94.0591 66.6857 93.9891 66.6057V65.7507C94.4291 65.0807 94.9941 64.5457 95.6841 64.1457C96.3841 63.7457 97.0991 63.5457 97.8291 63.5457C98.5491 63.5457 99.2591 63.7507 99.9591 64.1607C100.659 64.5607 101.239 65.1007 101.699 65.7807V66.6057C101.029 67.4157 100.279 68.0957 99.4491 68.6457ZM97.8141 67.9257C98.5641 67.3357 99.1191 66.7407 99.4791 66.1407C98.8791 65.5807 98.3141 65.3007 97.7841 65.3007C97.2741 65.3007 96.7441 65.5807 96.1941 66.1407C96.5841 66.8307 97.1241 67.4257 97.8141 67.9257ZM102.704 70.4607V68.6457H104.294C104.674 68.6457 104.944 68.5657 105.104 68.4057C105.274 68.2357 105.359 67.9557 105.359 67.5657V65.5857L107.249 64.5957V67.5657C107.249 67.9557 107.329 68.2357 107.489 68.4057C107.649 68.5657 107.919 68.6457 108.299 68.6457H109.319C109.699 68.6457 109.969 68.5657 110.129 68.4057C110.289 68.2357 110.369 67.9557 110.369 67.5657V65.1957L112.259 64.1907V67.5657C112.259 67.9557 112.339 68.2357 112.499 68.4057C112.669 68.5657 112.944 68.6457 113.324 68.6457H114.344C114.724 68.6457 114.994 68.5657 115.154 68.4057C115.314 68.2357 115.394 67.9557 115.394 67.5657V64.7907L117.284 63.8007V67.3257C117.284 67.8057 117.379 68.1457 117.569 68.3457C117.769 68.5457 118.099 68.6457 118.559 68.6457H119.939V70.4607H118.454C117.614 70.4607 116.939 70.2207 116.429 69.7407C115.979 70.2107 115.374 70.4507 114.614 70.4607H113.129C112.389 70.4607 111.784 70.2407 111.314 69.8007C110.884 70.2307 110.314 70.4507 109.604 70.4607H108.119C107.379 70.4607 106.774 70.2407 106.304 69.8007C105.834 70.2407 105.229 70.4607 104.489 70.4607H102.704ZM119.037 70.4607V68.6457H119.982C120.442 68.6457 120.767 68.5457 120.957 68.3457C121.157 68.1457 121.257 67.8057 121.257 67.3257V61.7907L123.132 60.7857V67.3407C123.132 68.3107 122.837 69.0857 122.247 69.6657C121.707 70.1957 120.987 70.4607 120.087 70.4607H119.037ZM125.832 70.4607V61.7907L127.722 60.7857V70.4607H125.832ZM136.721 69.5307C136.721 70.6907 136.401 71.6307 135.761 72.3507C135.171 73.0207 134.391 73.3557 133.421 73.3557C132.791 73.3557 132.176 73.1957 131.576 72.8757V71.2257C132.096 71.5157 132.606 71.6607 133.106 71.6607C133.656 71.6607 134.081 71.4807 134.381 71.1207C134.691 70.7707 134.846 70.2807 134.846 69.6507V64.8057L136.721 63.8007V69.5307ZM142.186 70.4607C141.276 70.4607 140.571 70.1707 140.071 69.5907C139.641 69.0907 139.426 68.4457 139.426 67.6557V61.7757L141.316 60.7857V67.5657C141.316 67.9557 141.396 68.2357 141.556 68.4057C141.716 68.5657 141.986 68.6457 142.366 68.6457H143.716V70.4607H142.186ZM150.912 68.6457H152.097V70.4607H150.717C149.987 70.4607 149.387 70.2657 148.917 69.8757C148.437 70.2657 147.832 70.4607 147.102 70.4607H142.812V68.6457H146.907C147.607 68.6457 147.957 68.3007 147.957 67.6107V67.5207C147.957 66.9707 147.752 66.5307 147.342 66.2007C146.932 65.8607 146.392 65.6907 145.722 65.6907C145.212 65.6907 144.677 65.7907 144.117 65.9907V64.1757L147.162 60.7857H149.067L146.337 63.8457C147.127 63.9257 147.797 64.1607 148.347 64.5507C149.347 65.2307 149.847 66.2157 149.847 67.5057V67.5657C149.847 67.9557 149.927 68.2357 150.087 68.4057C150.257 68.5657 150.532 68.6457 150.912 68.6457ZM152.616 62.4807C152.316 62.4807 152.076 62.3907 151.896 62.2107C151.716 62.0307 151.626 61.7857 151.626 61.4757C151.626 61.1857 151.716 60.9507 151.896 60.7707C152.076 60.5907 152.316 60.5007 152.616 60.5007C152.916 60.5007 153.151 60.5907 153.321 60.7707C153.501 60.9407 153.591 61.1757 153.591 61.4757C153.591 62.1457 153.266 62.4807 152.616 62.4807ZM154.911 62.4807C154.611 62.4807 154.371 62.3907 154.191 62.2107C154.011 62.0207 153.921 61.7757 153.921 61.4757C153.921 61.1857 154.011 60.9507 154.191 60.7707C154.381 60.5907 154.621 60.5007 154.911 60.5007C155.211 60.5007 155.446 60.5907 155.616 60.7707C155.796 60.9407 155.886 61.1757 155.886 61.4757C155.886 62.1457 155.561 62.4807 154.911 62.4807ZM156.531 68.6457H157.881V70.4607H156.351C155.621 70.4607 155.016 70.2657 154.536 69.8757C154.056 70.2657 153.451 70.4607 152.721 70.4607H151.191V68.6457H152.541C152.921 68.6457 153.191 68.5657 153.351 68.4057C153.511 68.2357 153.591 67.9557 153.591 67.5657V64.7907L155.481 63.8007V67.5657C155.481 67.9557 155.561 68.2357 155.721 68.4057C155.881 68.5657 156.151 68.6457 156.531 68.6457ZM156.977 70.4607V68.6457H158.327C158.707 68.6457 158.977 68.5657 159.137 68.4057C159.297 68.2357 159.377 67.9557 159.377 67.5657V64.7907L161.267 63.8007V67.6557C161.267 68.5657 160.987 69.2757 160.427 69.7857C159.937 70.2357 159.297 70.4607 158.507 70.4607H156.977ZM160.157 73.8057C159.857 73.8057 159.617 73.7157 159.437 73.5357C159.257 73.3557 159.167 73.1107 159.167 72.8007C159.167 72.5107 159.257 72.2757 159.437 72.0957C159.617 71.9157 159.857 71.8257 160.157 71.8257C160.457 71.8257 160.692 71.9107 160.862 72.0807C161.042 72.2607 161.132 72.5007 161.132 72.8007C161.132 73.4707 160.807 73.8057 160.157 73.8057ZM169.737 61.7907L171.627 60.7857V67.3407C171.627 68.3107 171.332 69.0857 170.742 69.6657C170.192 70.1957 169.467 70.4607 168.567 70.4607H162.912L163.857 68.6457H165.837V63.7407L167.727 62.7357V68.6457H168.462C168.922 68.6457 169.247 68.5457 169.437 68.3457C169.637 68.1457 169.737 67.8057 169.737 67.3257V61.7907ZM174.319 70.4607V61.7907L176.209 60.7857V70.4607H174.319ZM190.802 66.3507C190.082 65.6907 189.392 65.3607 188.732 65.3607C188.422 65.3607 188.167 65.4507 187.967 65.6307C187.777 65.8007 187.682 66.0307 187.682 66.3207C187.682 66.6807 187.797 66.9607 188.027 67.1607C188.267 67.3607 188.737 67.5857 189.437 67.8357C190.137 68.0657 190.627 68.2957 190.907 68.5257C191.357 68.8957 191.582 69.4107 191.582 70.0707C191.582 71.1007 191.107 71.9157 190.157 72.5157C189.307 73.0457 188.217 73.3107 186.887 73.3107C185.227 73.3107 183.977 72.8357 183.137 71.8857C182.517 71.1757 182.207 70.3057 182.207 69.2757C182.207 68.4857 182.392 67.7957 182.762 67.2057L184.562 66.8307C184.162 67.5107 183.962 68.2257 183.962 68.9757C183.962 69.7657 184.212 70.3807 184.712 70.8207C185.212 71.2707 185.937 71.4957 186.887 71.4957C187.847 71.4957 188.577 71.3457 189.077 71.0457C189.497 70.7857 189.707 70.4557 189.707 70.0557C189.707 69.8457 189.617 69.6757 189.437 69.5457C189.267 69.4057 188.912 69.2407 188.372 69.0507C187.502 68.7407 186.902 68.4207 186.572 68.0907C186.122 67.6407 185.897 67.0457 185.897 66.3057C185.897 65.4257 186.202 64.7407 186.812 64.2507C187.272 63.8707 187.807 63.6807 188.417 63.6807C189.437 63.6807 190.232 64.0357 190.802 64.7457V66.3507ZM185.882 76.6257C185.582 76.6257 185.342 76.5307 185.162 76.3407C184.982 76.1607 184.892 75.9207 184.892 75.6207C184.892 75.3307 184.982 75.0957 185.162 74.9157C185.342 74.7357 185.582 74.6457 185.882 74.6457C186.182 74.6457 186.417 74.7307 186.587 74.9007C186.767 75.0807 186.857 75.3207 186.857 75.6207C186.857 76.2907 186.532 76.6257 185.882 76.6257ZM188.192 76.6257C187.892 76.6257 187.652 76.5357 187.472 76.3557C187.292 76.1757 187.202 75.9307 187.202 75.6207C187.202 74.9707 187.532 74.6457 188.192 74.6457C188.492 74.6457 188.727 74.7307 188.897 74.9007C189.077 75.0807 189.167 75.3207 189.167 75.6207C189.167 76.2907 188.842 76.6257 188.192 76.6257ZM192.63 70.4607L193.575 68.6457H195.945C196.455 68.6457 196.71 68.3507 196.71 67.7607C196.71 66.6507 196.18 65.8007 195.12 65.2107L196.05 63.6207C197.75 64.6207 198.6 66.0107 198.6 67.7907C198.6 69.5707 197.83 70.4607 196.29 70.4607H192.63ZM203.739 70.4607C202.829 70.4607 202.124 70.1707 201.624 69.5907C201.194 69.0907 200.979 68.4457 200.979 67.6557V61.7757L202.869 60.7857V67.5657C202.869 67.9557 202.949 68.2357 203.109 68.4057C203.269 68.5657 203.539 68.6457 203.919 68.6457H205.269V70.4607H203.739ZM207.754 62.2857C207.454 62.2857 207.214 62.1957 207.034 62.0157C206.854 61.8357 206.764 61.5907 206.764 61.2807C206.764 60.9907 206.854 60.7557 207.034 60.5757C207.214 60.3957 207.454 60.3057 207.754 60.3057C208.054 60.3057 208.289 60.3957 208.459 60.5757C208.639 60.7457 208.729 60.9807 208.729 61.2807C208.729 61.9507 208.404 62.2857 207.754 62.2857ZM204.364 70.4607V68.6457H205.714C206.094 68.6457 206.364 68.5657 206.524 68.4057C206.684 68.2357 206.764 67.9557 206.764 67.5657V64.7907L208.654 63.8007V67.6557C208.654 68.5657 208.374 69.2757 207.814 69.7857C207.324 70.2357 206.684 70.4607 205.894 70.4607H204.364Z" fill="#357A51"/>
<path d="M75.7958 84.3974C75.6158 84.6674 75.3358 85.0724 74.9558 85.6124C74.1558 85.2624 73.4408 85.0874 72.8108 85.0874C71.9808 85.0874 71.5658 85.3974 71.5658 86.0174C71.5658 86.2974 71.6608 86.5174 71.8508 86.6774C72.0408 86.8374 72.4358 87.0324 73.0358 87.2624C74.1158 87.6824 74.8908 88.1374 75.3608 88.6274C75.8408 89.1174 76.0808 89.7074 76.0808 90.3974C76.0808 91.3674 75.7158 92.1174 74.9858 92.6474C74.3858 93.0774 73.6408 93.2924 72.7508 93.2924C71.7008 93.2924 70.5808 92.9124 69.3908 92.1524L70.2608 90.9374C70.8408 91.3274 71.5858 91.5224 72.4958 91.5224C73.5258 91.5224 74.0408 91.1074 74.0408 90.2774C74.0408 89.7374 73.4858 89.2774 72.3758 88.8974C70.5858 88.2974 69.6908 87.3374 69.6908 86.0174C69.6908 85.2174 69.9908 84.5824 70.5908 84.1124C71.1508 83.6624 71.8958 83.4374 72.8258 83.4374C73.8858 83.4374 74.8758 83.7574 75.7958 84.3974ZM83.2678 93.1124H81.7528L81.6028 92.4674C80.9428 93.0174 80.2728 93.2924 79.5928 93.2924C78.0828 93.2924 77.3278 92.5574 77.3278 91.0874C77.3278 90.3574 77.6428 89.7874 78.2728 89.3774C78.9128 88.9574 79.8578 88.7474 81.1078 88.7474H81.4228V88.7174C81.4228 88.2874 81.3328 87.9924 81.1528 87.8324C80.9728 87.6724 80.6478 87.5924 80.1778 87.5924C79.5178 87.5924 78.9128 87.8024 78.3628 88.2224C78.1828 87.8924 78.0128 87.5674 77.8528 87.2474C78.4228 86.8074 78.9178 86.5124 79.3378 86.3624C79.7678 86.2024 80.2778 86.1224 80.8678 86.1224C82.4678 86.1224 83.2678 87.1224 83.2678 89.1224V93.1124ZM81.3628 89.9024H81.1378C80.5678 89.9024 80.1078 90.0024 79.7578 90.2024C79.4078 90.4024 79.2328 90.6674 79.2328 90.9974C79.2328 91.6174 79.5028 91.9274 80.0428 91.9274C80.3728 91.9274 80.6628 91.8324 80.9128 91.6424C81.1628 91.4524 81.3128 91.2124 81.3628 90.9224V89.9024ZM89.7471 92.3324C89.2471 92.9724 88.5621 93.2924 87.6921 93.2924C86.8321 93.2924 86.2171 93.0724 85.8471 92.6324C85.4871 92.1824 85.3071 91.4324 85.3071 90.3824V86.3024H87.1671V89.8874C87.1671 90.5674 87.2571 91.0474 87.4371 91.3274C87.6171 91.5974 87.9271 91.7324 88.3671 91.7324C88.5571 91.7324 88.7721 91.6824 89.0121 91.5824C89.2521 91.4824 89.3971 91.3774 89.4471 91.2674V86.3024H91.3371V93.1124H89.9271L89.7621 92.3324H89.7471ZM98.2384 93.1124L97.9684 92.3924C97.8084 92.6524 97.5484 92.8674 97.1884 93.0374C96.8284 93.2074 96.4584 93.2924 96.0784 93.2924C95.0084 93.2924 94.1934 92.9374 93.6334 92.2274C93.1634 91.6374 92.9284 90.8774 92.9284 89.9474C92.9284 88.6374 93.3084 87.6274 94.0684 86.9174C94.6384 86.3874 95.3234 86.1224 96.1234 86.1224C96.8134 86.1224 97.3934 86.3124 97.8634 86.6924V84.5174L99.7534 83.4674V93.1124H98.2384ZM97.8634 90.5174V88.6124C97.7934 88.2824 97.6334 88.0124 97.3834 87.8024C97.1434 87.5824 96.8584 87.4724 96.5284 87.4724C96.0184 87.4724 95.6134 87.6724 95.3134 88.0724C95.0134 88.4724 94.8634 89.0124 94.8634 89.6924C94.8634 91.1824 95.3484 91.9274 96.3184 91.9274C96.6784 91.9274 97.0134 91.7874 97.3234 91.5074C97.6334 91.2174 97.8134 90.8874 97.8634 90.5174ZM103.617 86.3024V93.1124H101.712V86.3024H103.617ZM101.487 84.5624C101.487 84.2424 101.597 83.9674 101.817 83.7374C102.047 83.4974 102.317 83.3774 102.627 83.3774C102.957 83.3774 103.237 83.4924 103.467 83.7224C103.707 83.9524 103.827 84.2324 103.827 84.5624C103.827 84.9124 103.712 85.1974 103.482 85.4174C103.262 85.6374 102.977 85.7474 102.627 85.7474C102.297 85.7474 102.022 85.6374 101.802 85.4174C101.592 85.1874 101.487 84.9024 101.487 84.5624ZM111.284 83.6174V93.1124H109.349V83.6174H111.284ZM115.335 86.9624C115.535 86.7324 115.835 86.5374 116.235 86.3774C116.635 86.2074 117.015 86.1224 117.375 86.1224C118.235 86.1224 118.855 86.3574 119.235 86.8274C119.625 87.2974 119.82 88.0574 119.82 89.1074V93.1124H117.915V89.1824C117.915 88.2024 117.48 87.7124 116.61 87.7124C116.39 87.7124 116.155 87.7624 115.905 87.8624C115.655 87.9524 115.485 88.0574 115.395 88.1774V93.1124H113.505V86.3024H115.11C115.16 86.5624 115.21 86.7824 115.26 86.9624H115.335ZM123.612 86.9624C123.812 86.7324 124.112 86.5374 124.512 86.3774C124.912 86.2074 125.292 86.1224 125.652 86.1224C126.512 86.1224 127.132 86.3574 127.512 86.8274C127.902 87.2974 128.097 88.0574 128.097 89.1074V93.1124H126.192V89.1824C126.192 88.2024 125.757 87.7124 124.887 87.7124C124.667 87.7124 124.432 87.7624 124.182 87.8624C123.932 87.9524 123.762 88.0574 123.672 88.1774V93.1124H121.782V86.3024H123.387C123.437 86.5624 123.487 86.7824 123.537 86.9624H123.612ZM132.998 86.1224C134.118 86.1224 134.988 86.5174 135.608 87.3074C136.128 87.9674 136.388 88.7724 136.388 89.7224C136.388 90.8324 136.003 91.7324 135.233 92.4224C134.593 93.0024 133.848 93.2924 132.998 93.2924C132.008 93.2924 131.178 92.9224 130.508 92.1824C129.908 91.5124 129.608 90.6924 129.608 89.7224C129.608 88.6224 129.943 87.7324 130.613 87.0524C131.223 86.4324 132.018 86.1224 132.998 86.1224ZM132.998 91.8824C133.968 91.8824 134.453 91.1624 134.453 89.7224C134.453 88.2224 133.968 87.4724 132.998 87.4724C132.028 87.4724 131.543 88.2224 131.543 89.7224C131.543 91.1624 132.028 91.8824 132.998 91.8824ZM141.093 93.1124H139.623L136.968 86.3024H138.873L140.328 90.8024L141.873 86.3024H143.853L143.568 87.0074L143.238 87.8174C142.308 90.1174 141.593 91.8824 141.093 93.1124ZM150.446 93.1124H148.931L148.781 92.4674C148.121 93.0174 147.451 93.2924 146.771 93.2924C145.261 93.2924 144.506 92.5574 144.506 91.0874C144.506 90.3574 144.821 89.7874 145.451 89.3774C146.091 88.9574 147.036 88.7474 148.286 88.7474H148.601V88.7174C148.601 88.2874 148.511 87.9924 148.331 87.8324C148.151 87.6724 147.826 87.5924 147.356 87.5924C146.696 87.5924 146.091 87.8024 145.541 88.2224C145.361 87.8924 145.191 87.5674 145.031 87.2474C145.601 86.8074 146.096 86.5124 146.516 86.3624C146.946 86.2024 147.456 86.1224 148.046 86.1224C149.646 86.1224 150.446 87.1224 150.446 89.1224V93.1124ZM148.541 89.9024H148.316C147.746 89.9024 147.286 90.0024 146.936 90.2024C146.586 90.4024 146.411 90.6674 146.411 90.9974C146.411 91.6174 146.681 91.9274 147.221 91.9274C147.551 91.9274 147.841 91.8324 148.091 91.6424C148.341 91.4524 148.491 91.2124 148.541 90.9224V89.9024ZM156.745 87.8174H154.795V91.1924C154.795 91.6924 154.96 91.9424 155.29 91.9424C155.59 91.9424 155.965 91.8124 156.415 91.5524L157.045 92.5124C156.335 93.0724 155.55 93.3524 154.69 93.3524C153.49 93.3524 152.89 92.6924 152.89 91.3724V87.8174H151.945V86.3024H152.905V85.0874C153.405 84.8174 154.04 84.4824 154.81 84.0824V86.3024H156.745V87.8174ZM160.277 86.3024V93.1124H158.372V86.3024H160.277ZM158.147 84.5624C158.147 84.2424 158.257 83.9674 158.477 83.7374C158.707 83.4974 158.977 83.3774 159.287 83.3774C159.617 83.3774 159.897 83.4924 160.127 83.7224C160.367 83.9524 160.487 84.2324 160.487 84.5624C160.487 84.9124 160.372 85.1974 160.142 85.4174C159.922 85.6374 159.637 85.7474 159.287 85.7474C158.957 85.7474 158.682 85.6374 158.462 85.4174C158.252 85.1874 158.147 84.9024 158.147 84.5624ZM165.166 86.1224C166.286 86.1224 167.156 86.5174 167.776 87.3074C168.296 87.9674 168.556 88.7724 168.556 89.7224C168.556 90.8324 168.171 91.7324 167.401 92.4224C166.761 93.0024 166.016 93.2924 165.166 93.2924C164.176 93.2924 163.346 92.9224 162.676 92.1824C162.076 91.5124 161.776 90.6924 161.776 89.7224C161.776 88.6224 162.111 87.7324 162.781 87.0524C163.391 86.4324 164.186 86.1224 165.166 86.1224ZM165.166 91.8824C166.136 91.8824 166.621 91.1624 166.621 89.7224C166.621 88.2224 166.136 87.4724 165.166 87.4724C164.196 87.4724 163.711 88.2224 163.711 89.7224C163.711 91.1624 164.196 91.8824 165.166 91.8824ZM171.981 86.9624C172.181 86.7324 172.481 86.5374 172.881 86.3774C173.281 86.2074 173.661 86.1224 174.021 86.1224C174.881 86.1224 175.501 86.3574 175.881 86.8274C176.271 87.2974 176.466 88.0574 176.466 89.1074V93.1124H174.561V89.1824C174.561 88.2024 174.126 87.7124 173.256 87.7124C173.036 87.7124 172.801 87.7624 172.551 87.8624C172.301 87.9524 172.131 88.0574 172.041 88.1774V93.1124H170.151V86.3024H171.756C171.806 86.5624 171.856 86.7824 171.906 86.9624H171.981ZM188.991 92.0474C188.161 92.8774 187.186 93.2924 186.066 93.2924C184.456 93.2924 183.256 92.6924 182.466 91.4924C181.896 90.6324 181.611 89.6224 181.611 88.4624C181.611 86.9524 182.001 85.7374 182.781 84.8174C183.551 83.8974 184.621 83.4374 185.991 83.4374C186.951 83.4374 187.911 83.8424 188.871 84.6524L188.106 85.8974C187.386 85.3774 186.731 85.1174 186.141 85.1174C185.321 85.1174 184.686 85.4624 184.236 86.1524C183.846 86.7424 183.651 87.5124 183.651 88.4624C183.651 89.3024 183.881 90.0224 184.341 90.6224C184.831 91.2524 185.486 91.5674 186.306 91.5674C186.846 91.5674 187.486 91.3324 188.226 90.8624L188.991 92.0474ZM192.505 83.4374V93.1124H190.615V84.4274L192.505 83.4374ZM198.981 92.3324C198.481 92.9724 197.796 93.2924 196.926 93.2924C196.066 93.2924 195.451 93.0724 195.081 92.6324C194.721 92.1824 194.541 91.4324 194.541 90.3824V86.3024H196.401V89.8874C196.401 90.5674 196.491 91.0474 196.671 91.3274C196.851 91.5974 197.161 91.7324 197.601 91.7324C197.791 91.7324 198.006 91.6824 198.246 91.5824C198.486 91.4824 198.631 91.3774 198.681 91.2674V86.3024H200.571V93.1124H199.161L198.996 92.3324H198.981ZM204.112 93.1124H202.582V84.5024L204.472 83.4374V87.0674C204.682 86.7474 204.977 86.4974 205.357 86.3174C205.657 86.1774 205.987 86.1074 206.347 86.1074C207.357 86.1074 208.147 86.4524 208.717 87.1424C209.217 87.7524 209.467 88.5624 209.467 89.5724C209.467 90.8724 209.097 91.8574 208.357 92.5274C207.777 93.0374 207.062 93.2924 206.212 93.2924C205.372 93.2924 204.722 93.0074 204.262 92.4374L204.112 93.1124ZM204.472 89.0324V90.6674C204.502 91.0374 204.652 91.3474 204.922 91.5974C205.202 91.8474 205.527 91.9724 205.897 91.9724C206.377 91.9724 206.757 91.7724 207.037 91.3724C207.317 90.9724 207.457 90.4224 207.457 89.7224C207.457 89.0324 207.327 88.4874 207.067 88.0874C206.807 87.6874 206.447 87.4874 205.987 87.4874C205.567 87.4874 205.207 87.6374 204.907 87.9374C204.617 88.2374 204.472 88.6024 204.472 89.0324Z" fill="#357A51"/>
<path d="M54.9939 52.2097H73.6849C79.003 52.2097 83.3076 47.8877 83.3076 42.5616V21.7769H64.6166C59.2985 21.7769 54.9939 26.0989 54.9939 31.425V52.2097Z" fill="#357A51"/>
<path d="M87.9937 38.7717H99.7031C102.762 38.7717 105.242 36.2849 105.242 33.2184V22.1356H93.5324C90.4739 22.1356 87.9937 24.6223 87.9937 27.6889V38.7717Z" fill="#6FB787"/>
<path d="M62.7505 17.8496H74.4599C77.5185 17.8496 79.9987 15.3628 79.9987 12.2962V1.21348H68.2892C65.2307 1.21348 62.7505 3.70023 62.7505 6.76681V17.8496Z" fill="#6CBA81"/>
<path d="M86.5808 19.2782H92.3401C93.7412 19.2782 94.874 18.1425 94.874 16.7377V10.9632H89.1147C87.7136 10.9632 86.5808 12.099 86.5808 13.5037V19.2782Z" fill="#3E7355"/>
<path d="M86.2349 50.1772H90.5931C91.9942 50.1772 93.127 49.0415 93.127 47.6367V43.2669H88.7687C87.3677 43.2669 86.2349 44.4027 86.2349 45.8075V50.1772Z" fill="#70AABB"/>
<path d="M23.3772 76.4494H33.7869C36.7143 76.4494 39.0812 74.0703 39.0812 71.1412V59.7416H28.6715C25.7441 59.7416 23.3772 62.1208 23.3772 65.0499V76.4494Z" fill="#38ADB3"/>
<path d="M10.9224 64.0157H18.1424C20.2231 64.0157 21.9104 62.324 21.9104 60.2378V52.9987H14.6904C12.6096 52.9987 10.9224 54.6904 10.9224 56.7767V64.0157Z" fill="#7394AD"/>
<path d="M33.5066 24.0664H50.2718C54.2664 24.0664 57.5098 20.8205 57.5098 16.8094V0H40.7445C36.744 0 33.5066 3.24592 33.5066 7.25699V24.0664Z" fill="#798C93"/>
<path d="M50.5164 56.1908H32.7436C27.4254 56.1908 23.1208 51.8689 23.1208 46.5428V28.7231H40.8937C46.2118 28.7231 50.5164 33.045 50.5164 38.3712V56.1908Z" fill="#6FB883"/>
<path d="M28.4151 25.4533H18.536C15.6086 25.4533 13.2417 23.0741 13.2417 20.145V10.2399H23.1208C26.0482 10.2399 28.4151 12.619 28.4151 15.5481V25.4533Z" fill="#816F9D"/>
<path d="M19.633 49.0713H5.29429C2.37289 49.0713 0 46.6922 0 43.7571V29.3866H14.3327C17.2601 29.3866 19.627 31.7658 19.627 34.6949V49.0713H19.633Z" fill="#532D85"/>
</svg>
